<svg aria-hidden="true" style="position: absolute; width: 0; height: 0; overflow: hidden;" version="1.1" xmlns="http://www.w3.org/2000/svg" xmlns:xlink="http://www.w3.org/1999/xlink">
    <defs>
        <symbol id="location" viewBox="0 0 32 32">
            <path d="M16 0c-5.523 0-10 4.477-10 10 0 10 10 22 10 22s10-12 10-22c0-5.523-4.477-10-10-10zM16 16c-3.314 0-6-2.686-6-6s2.686-6 6-6 6 2.686 6 6-2.686 6-6 6z"></path>
        </symbol>
        <symbol id="mail" viewBox="0 0 24 24" fill="#fafafa" stroke="#fafafa">
            <path d="M3 7.921l8.427 5.899c0.34 0.235 0.795 0.246 1.147 0l8.426-5.899v10.079c0 0.272-0.11 0.521-0.295 0.705s-0.433 0.295-0.705 0.295h-16c-0.272 0-0.521-0.11-0.705-0.295s-0.295-0.433-0.295-0.705zM1 5.983c0 0.010 0 0.020 0 0.030v11.987c0 0.828 0.34 1.579 0.88 2.12s1.292 0.88 2.12 0.88h16c0.828 0 1.579-0.34 2.12-0.88s0.88-1.292 0.88-2.12v-11.988c0-0.010 0-0.020 0-0.030-0.005-0.821-0.343-1.565-0.88-2.102-0.541-0.54-1.292-0.88-2.12-0.88h-16c-0.828 0-1.579 0.34-2.12 0.88-0.537 0.537-0.875 1.281-0.88 2.103zM20.894 5.554l-8.894 6.225-8.894-6.225c0.048-0.096 0.112-0.183 0.188-0.259 0.185-0.185 0.434-0.295 0.706-0.295h16c0.272 0 0.521 0.11 0.705 0.295 0.076 0.076 0.14 0.164 0.188 0.259z"></path>
        </symbol>
        <symbol id="phone" viewBox="0 0 46 46">
            <path d="M44 36.293C44 37.049 43.8317 37.826 43.4742 38.582C43.1167 39.338 42.654 40.052 42.0441 40.724C41.0135 41.858 39.8778 42.677 38.5949 43.202C37.333 43.727 35.966 44 34.4937 44C32.3485 44 30.0561 43.496 27.6375 42.467C25.2188 41.438 22.8002 40.052 20.4026 38.309C17.984 36.545 15.6915 34.592 13.5043 32.429C11.338 30.245 9.38207 27.956 7.63645 25.562C5.91187 23.168 4.52379 20.774 3.51427 18.401C2.50476 16.007 2 13.718 2 11.534C2 10.106 2.25238 8.741 2.75714 7.481C3.26189 6.2 4.06109 5.024 5.17576 3.974C6.52178 2.651 7.99399 2 9.55033 2C10.1392 2 10.7281 2.126 11.2539 2.378C11.8007 2.63 12.2844 3.008 12.663 3.554L17.5423 10.421C17.9209 10.946 18.1943 11.429 18.3836 11.891C18.5729 12.332 18.678 12.773 18.678 13.172C18.678 13.676 18.5308 14.18 18.2364 14.663C17.9629 15.146 17.5633 15.65 17.0586 16.154L15.4602 17.813C15.2288 18.044 15.1237 18.317 15.1237 18.653C15.1237 18.821 15.1447 18.968 15.1868 19.136C15.2499 19.304 15.313 19.43 15.355 19.556C15.7336 20.249 16.3856 21.152 17.311 22.244C18.2574 23.336 19.2669 24.449 20.3605 25.562C21.4962 26.675 22.5899 27.704 23.7046 28.649C24.7982 29.573 25.7026 30.203 26.4176 30.581C26.5228 30.623 26.649 30.686 26.7962 30.749C26.9644 30.812 27.1327 30.833 27.322 30.833C27.6795 30.833 27.9529 30.707 28.1843 30.476L29.7827 28.901C30.3085 28.376 30.8132 27.977 31.2969 27.725C31.7807 27.431 32.2644 27.284 32.7902 27.284C33.1898 27.284 33.6104 27.368 34.0731 27.557C34.5358 27.746 35.0195 28.019 35.5453 28.376L42.5068 33.311C43.0536 33.689 43.4322 34.13 43.6635 34.655C43.8738 35.18 44 35.705 44 36.293Z" stroke="#111418" stroke-width="4" stroke-miterlimit="10"/>
        </symbol>
        <symbol id="instagram" viewBox="0 0 24 24">
            <path d="M9 22H15C20 22 22 20 22 15V9C22 4 20 2 15 2H9C4 2 2 4 2 9V15C2 20 4 22 9 22Z" stroke="#fafafa" stroke-width="2" stroke-linecap="round" stroke-linejoin="round"/>
            <path d="M12 15.5C12.4596 15.5 12.9148 15.4095 13.3394 15.2336C13.764 15.0577 14.1499 14.7999 14.4749 14.4749C14.7999 14.1499 15.0577 13.764 15.2336 13.3394C15.4095 12.9148 15.5 12.4596 15.5 12C15.5 11.5404 15.4095 11.0852 15.2336 10.6606C15.0577 10.236 14.7999 9.85013 14.4749 9.52513C14.1499 9.20012 13.764 8.94231 13.3394 8.76642C12.9148 8.59053 12.4596 8.5 12 8.5C11.0717 8.5 10.1815 8.86875 9.52513 9.52513C8.86875 10.1815 8.5 11.0717 8.5 12C8.5 12.9283 8.86875 13.8185 9.52513 14.4749C10.1815 15.1313 11.0717 15.5 12 15.5Z" stroke="#fafafa" stroke-width="2" stroke-linecap="round" stroke-linejoin="round"/>
            <path d="M17.636 7H17.648" stroke="#fafafa" stroke-width="2" stroke-linecap="round" stroke-linejoin="round"/>
        </symbol>
        <symbol id="twitter" viewBox="0 0 24 24">
            <path d="M20.833 5.262c-0.186 0.242-0.391 0.475-0.616 0.696-0.233 0.232-0.347 0.567-0.278 0.908 0.037 0.182 0.060 0.404 0.061 0.634 0 5.256-2.429 8.971-5.81 10.898-2.647 1.509-5.938 1.955-9.222 1.12 1.245-0.361 2.46-0.921 3.593-1.69 0.147-0.099 0.273-0.243 0.352-0.421 0.224-0.505-0.003-1.096-0.508-1.32-2.774-1.233-4.13-2.931-4.769-4.593-0.417-1.084-0.546-2.198-0.52-3.227 0.021-0.811 0.138-1.56 0.278-2.182 0.394 0.343 0.803 0.706 1.235 1.038 2.051 1.577 4.624 2.479 7.395 2.407 0.543-0.015 0.976-0.457 0.976-1v-1.011c-0.002-0.179 0.009-0.357 0.034-0.533 0.113-0.806 0.504-1.569 1.162-2.141 0.725-0.631 1.636-0.908 2.526-0.846s1.753 0.463 2.384 1.188c0.252 0.286 0.649 0.416 1.033 0.304 0.231-0.067 0.463-0.143 0.695-0.228zM22.424 2.183c-0.74 0.522-1.523 0.926-2.287 1.205-0.931-0.836-2.091-1.302-3.276-1.385-1.398-0.097-2.836 0.339-3.977 1.332-1.036 0.901-1.652 2.108-1.83 3.372-0.037 0.265-0.055 0.532-0.054 0.8-1.922-0.142-3.693-0.85-5.15-1.97-0.775-0.596-1.462-1.309-2.034-2.116-0.32-0.45-0.944-0.557-1.394-0.237-0.154 0.109-0.267 0.253-0.335 0.409 0 0-0.132 0.299-0.285 0.76-0.112 0.337-0.241 0.775-0.357 1.29-0.163 0.722-0.302 1.602-0.326 2.571-0.031 1.227 0.12 2.612 0.652 3.996 0.683 1.775 1.966 3.478 4.147 4.823-1.569 0.726-3.245 1.039-4.873 0.967-0.552-0.024-1.019 0.403-1.043 0.955-0.017 0.389 0.19 0.736 0.513 0.918 4.905 2.725 10.426 2.678 14.666 0.261 4.040-2.301 6.819-6.7 6.819-12.634-0.001-0.167-0.008-0.33-0.023-0.489 1.006-1.115 1.676-2.429 1.996-3.781 0.127-0.537-0.206-1.076-0.743-1.203-0.29-0.069-0.58-0.003-0.807 0.156z"></path>
        </symbol>
        <symbol id="facebook" viewBox="0 0 32 32">
            <path d="M19 6h5v-6h-5c-3.86 0-7 3.14-7 7v3h-4v6h4v16h6v-16h5l1-6h-6v-3c0-0.542 0.458-1 1-1z"></path>
        </symbol>
    </defs>
</svg>